<svg viewBox="0 0 169.52 212.55" xmlns="http://www.w3.org/2000/svg" id="Layer_2"><defs><style>.cls-1{fill:#f6f2ed;}</style></defs><g id="Layer_1-2"><path d="M126.85,131.11c0-9.7.78-17.47,2.32-23.1l2.57-7.76-5.12,2.75c-9.58,5.15-18.11,8.09-25.34,8.72l-3.43.3,1.57,3.06c2.22,4.32,3.3,9.98,3.3,17.26-.14,7.44-.97,12.89-2.48,16.56-.92,1.94-2.29,2.8-4.46,2.8-1.5,0-3.05-.36-4.68-1.11-3.46-1.41-6.54-3.84-9.15-7.24-2.7-3.51-4.67-7.5-5.86-11.87-1.4-5.11-2.28-9.31-2.79-13.22-.55-4.15-.83-8.46-.83-12.79s.37-9.16,1.11-14.03c.63-4.18,1.87-8.8,3.88-14.51,1.68-4.64,4.33-8.41,8.08-11.49,3.6-2.83,7.88-4.2,13.09-4.2,6.71,0,12.34,4.09,17.21,12.51l4.31,7.46v-11.81c-.17-1.82-.09-2.54-.04-2.76l.04-.45c0-.25.04-.98.36-2.29l.05-.27c.1-.83.45-1.6.77-2.24l2.11-4.21-4.62.91c-.46.09-1.45.24-2.97.24-2.16,0-4-.28-5.72-.9-7.59-2.33-14.81-3.52-21.46-3.52-14.83,0-26.99,4.94-36.13,14.68-9.01,9.6-13.58,22.29-13.58,37.73s4.77,27.91,14.17,37.62c9.42,9.72,21.95,14.65,37.24,14.65,3.6,0,8.17-.72,13.95-2.21,5.34-1.37,9.32-2.06,11.81-2.06,4.82,0,8.58.76,10.86,2.2l5.42,3.43-1.99-6.1c-2.38-7.28-3.59-14.94-3.59-22.76Z" class="cls-1"></path><path d="M84.76,0C38.02,0,0,38.02,0,84.76v43.03c0,46.74,38.02,84.76,84.76,84.76s84.76-38.02,84.76-84.76v-43.03C169.52,38.02,131.5,0,84.76,0ZM84.76,203.75c-41.88,0-75.96-34.08-75.96-75.96v-43.03C8.8,42.88,42.88,8.8,84.76,8.8s75.96,34.08,75.96,75.96v43.03c0,41.88-34.08,75.96-75.96,75.96Z" class="cls-1"></path></g></svg>