<svg xmlns="http://www.w3.org/2000/svg" width="512" height="512" viewBox="0 0 512 512" fill="none"><rect width="512" height="512" fill="black"></rect><path d="M74.6765 313.138L40 214.511H70.7614L92.2011 286.086L113.641 214.511H141.606L107.116 313.138H74.6765Z" fill="white"></path><path d="M132.499 277.632V214.511H162.328V271.057C162.328 277.069 163.509 281.703 165.871 284.959C168.232 288.09 171.588 289.655 175.938 289.655C178.672 289.655 181.282 289.217 183.768 288.34C186.254 287.338 188.678 285.773 191.039 283.644C193.401 281.515 195.513 278.759 197.378 275.378V214.511H227.207V279.699C227.207 282.705 227.642 284.834 228.512 286.086C229.506 287.213 231.184 287.902 233.546 288.152V313.138C230.811 313.639 228.388 314.015 226.275 314.265C224.286 314.516 222.484 314.641 220.868 314.641C215.648 314.641 211.485 313.576 208.377 311.447C205.27 309.193 203.344 306.062 202.598 302.054L202.039 296.043C197.564 302.555 191.971 307.377 185.26 310.508C178.672 313.514 171.277 315.016 163.074 315.016C153.131 315.016 145.55 311.823 140.329 305.436C135.109 299.048 132.499 289.781 132.499 277.632Z" fill="white"></path><path d="M276.247 315.016C267.92 315.016 260.524 313.701 254.061 311.071C247.598 308.316 242.068 304.622 237.469 299.988C232.994 295.354 229.577 290.031 227.215 284.02C224.854 277.883 223.673 271.496 223.673 264.858C223.673 255.34 225.724 246.698 229.825 238.933C234.051 231.043 240.079 224.718 247.909 219.959C255.739 215.075 265.185 212.633 276.247 212.633C287.309 212.633 296.692 215.012 304.398 219.771C312.228 224.531 318.194 230.793 322.296 238.557C326.397 246.197 328.448 254.526 328.448 263.543C328.448 265.296 328.324 267.05 328.075 268.803C327.951 270.431 327.827 271.871 327.702 273.124H255.366C255.739 277.507 256.92 281.202 258.909 284.207C261.022 287.213 263.694 289.53 266.925 291.158C270.157 292.661 273.575 293.413 277.179 293.413C281.653 293.413 285.817 292.348 289.67 290.219C293.647 288.09 296.382 285.209 297.873 281.577L323.228 288.716C320.742 293.851 317.2 298.422 312.601 302.43C308.127 306.312 302.782 309.381 296.568 311.635C290.478 313.889 283.704 315.016 276.247 315.016ZM254.621 254.713H297.127C296.63 250.58 295.449 247.011 293.585 244.005C291.721 240.874 289.235 238.495 286.128 236.867C283.021 235.113 279.603 234.237 275.874 234.237C272.021 234.237 268.541 235.113 265.434 236.867C262.451 238.495 260.027 240.874 258.163 244.005C256.299 247.011 255.118 250.58 254.621 254.713Z" fill="white"></path><path d="M324.035 176H353.864V278.008C353.864 282.141 354.61 285.084 356.101 286.837C357.592 288.591 359.705 289.467 362.44 289.467C364.304 289.467 366.168 289.217 368.033 288.716C370.021 288.09 371.761 287.401 373.253 286.65L384.361 306.17C380.632 307.923 369.151 312.324 364.304 313.326C359.457 314.328 354.92 314.829 350.695 314.829C342.243 314.829 335.656 312.574 330.933 308.066C326.334 303.432 324.035 296.919 324.035 288.528V176Z" fill="white"></path><path d="M411.612 315.016C403.285 315.016 395.828 313.639 389.24 310.884C382.777 308.128 377.309 304.371 372.834 299.612C368.36 294.853 364.942 289.405 362.581 283.268C360.343 277.131 359.225 270.682 359.225 263.919C359.225 257.03 360.343 250.518 362.581 244.381C364.942 238.244 368.36 232.796 372.834 228.037C377.309 223.278 382.777 219.521 389.24 216.766C395.828 214.01 403.285 212.633 411.612 212.633C419.94 212.633 427.335 214.01 433.798 216.766C440.261 219.521 445.73 223.278 450.204 228.037C454.678 232.796 458.096 238.244 460.458 244.381C462.819 250.518 464 257.03 464 263.919C464 270.682 462.819 277.131 460.458 283.268C458.096 289.405 454.678 294.853 450.204 299.612C445.73 304.371 440.261 308.128 433.798 310.884C427.335 313.639 419.94 315.016 411.612 315.016ZM389.8 263.919C389.8 269.053 390.732 273.562 392.596 277.444C394.585 281.327 397.195 284.333 400.426 286.462C403.658 288.591 407.387 289.655 411.612 289.655C415.714 289.655 419.38 288.591 422.612 286.462C425.968 284.207 428.578 281.139 430.442 277.257C432.306 273.374 433.239 268.928 433.239 263.919C433.239 258.784 432.306 254.275 430.442 250.393C428.578 246.51 425.968 243.504 422.612 241.375C419.38 239.246 415.714 238.182 411.612 238.182C407.387 238.182 403.658 239.246 400.426 241.375C397.195 243.504 394.585 246.51 392.596 250.393C390.732 254.275 389.8 258.784 389.8 263.919Z" fill="white"></path></svg>