<svg width="177" height="27" viewBox="0 0 177 27" fill="none" xmlns="http://www.w3.org/2000/svg">
<path fill-rule="evenodd" clip-rule="evenodd" d="M0.128661 0.498409L4.35266 0.498409L4.35266 4.79314L0.128661 4.79314L0.128661 0.498409ZM4.13919 8.02295L4.13919 24.5994L0.376875 24.5994L0.376874 8.02295L4.13919 8.02295Z" fill="black"/>
<path fill-rule="evenodd" clip-rule="evenodd" d="M23.9916 14.7315L23.9916 24.6013L20.2296 24.6013L20.2296 15.2635C20.2296 12.7074 18.8453 11.0384 16.0773 11.0384C13.6282 11.0384 11.392 12.9203 11.392 16.0803L11.392 24.6013L7.62994 24.6013L7.62994 8.02054L11.392 8.02054L11.392 9.54746C12.386 8.37621 14.3027 7.55874 16.6804 7.55874C21.1169 7.55874 23.9916 10.3997 23.9916 14.7315Z" fill="black"/>
<path fill-rule="evenodd" clip-rule="evenodd" d="M26.9973 0.498409L31.2213 0.498409L31.2213 4.79314L26.9973 4.79314L26.9973 0.498409ZM31.0078 8.02295L31.0078 24.5994L27.2455 24.5994L27.2455 8.02295L31.0078 8.02295Z" fill="black"/>
<path fill-rule="evenodd" clip-rule="evenodd" d="M39.4973 3.87159L39.4973 8.02434L44.6783 8.02434L44.6783 11.3257L39.4973 11.3257L39.4973 18.8158C39.4973 20.4125 40.3132 21.2999 42.0168 21.2999L44.6783 21.2999L44.6783 24.6013L41.9808 24.6013C37.8291 24.6013 35.7352 22.5776 35.7352 19.4544L35.7352 11.3257L32.6834 11.3257L32.6834 8.02434L35.7352 8.02434L35.7352 3.87159L39.4973 3.87159Z" fill="black"/>
<path fill-rule="evenodd" clip-rule="evenodd" d="M46.5042 0.498409L50.7283 0.498409L50.7283 4.79314L46.5042 4.79314L46.5042 0.498409ZM50.5154 8.02295L50.5154 24.5994L46.7531 24.5994L46.7531 8.02295L50.5154 8.02295Z" fill="black"/>
<path fill-rule="evenodd" clip-rule="evenodd" d="M65.4655 17.1808L60.7798 17.1808C58.4373 17.1808 57.0175 17.8907 57.0175 19.488C57.0175 20.9791 58.3306 21.8658 60.4956 21.8658C63.3358 21.8658 65.4655 20.4467 65.4655 18.0682L65.4655 17.1808ZM69.2278 14.1638L69.2278 24.5994L65.4655 24.5994L65.4655 23.0735C64.2226 24.3859 62.235 25.061 59.8925 25.061C55.9173 25.061 53.2552 23.1442 53.2552 19.488C53.2552 15.4061 56.9461 14.1638 60.8152 14.1638L65.4655 14.1638C65.4655 11.892 63.5133 11.04 61.0994 11.04C59.1826 11.04 57.4792 11.6438 56.8754 13.1703L52.8643 13.1703C53.823 9.44335 57.2657 7.56124 61.064 7.56124C65.8912 7.56124 69.2278 9.93977 69.2278 14.1638L69.2278 14.1638Z" fill="black"/>
<path fill-rule="evenodd" clip-rule="evenodd" d="M76.2863 0.856422L76.2863 24.6013L72.5196 24.6013L72.5196 0.856422L76.2863 0.856422Z" fill="black"/>
<path fill-rule="evenodd" clip-rule="evenodd" d="M79.527 0.498409L83.751 0.498409L83.751 4.79314L79.527 4.79314L79.527 0.498409ZM83.5381 8.02295L83.5381 24.5994L79.7758 24.5994L79.7758 8.02295L83.5381 8.02295Z" fill="black"/>
<path fill-rule="evenodd" clip-rule="evenodd" d="M85.9368 24.6013L85.9368 21.2992L95.8737 11.3231L85.9368 11.3231L85.9368 8.02105L100.842 8.02105L100.842 11.3231L90.8339 21.2992L100.913 21.2992L100.913 24.6013L85.9368 24.6013Z" fill="black"/>
<path fill-rule="evenodd" clip-rule="evenodd" d="M106.059 14.6254L115.181 14.6254C114.826 12.4244 113.123 10.9332 110.744 10.9332C108.331 10.9332 106.379 12.4244 106.059 14.6254ZM114.826 19.7722L118.908 19.7722C117.701 23.0375 114.542 25.061 110.921 25.061C105.845 25.061 102.083 21.3695 102.083 16.2935C102.083 11.3242 105.668 7.56125 110.744 7.56125C115.678 7.56125 119.157 11.3242 119.157 16.1514C119.157 16.6484 119.157 17.1455 119.085 17.6425L105.988 17.6425C106.414 19.985 108.437 21.5823 110.921 21.5823C112.59 21.5823 114.01 21.0139 114.826 19.7722L114.826 19.7722Z" fill="black"/>
<path fill-rule="evenodd" clip-rule="evenodd" d="M129.456 11.04C126.546 11.04 124.522 13.4539 124.522 16.3288C124.522 19.169 126.546 21.5823 129.456 21.5823C132.048 21.5823 134.568 19.8429 134.568 16.3288C134.568 12.7794 132.048 11.04 129.456 11.04ZM138.189 0.853246L138.189 24.5994L134.426 24.5994L134.426 23.0735C133.255 24.3151 131.303 25.061 129.208 25.061C123.813 25.061 120.76 20.8724 120.76 16.3288C120.76 11.7499 123.813 7.56125 129.208 7.56125C131.303 7.56125 133.255 8.30714 134.426 9.54945L134.426 0.853242L138.189 0.853246Z" fill="black"/>
<path fill-rule="evenodd" clip-rule="evenodd" d="M160.716 22.866C156.336 21.9231 153.237 18.0817 153.237 13.1174C153.237 8.15241 156.336 4.31105 160.716 3.36872L160.716 0.105903C154.402 1.08298 149.796 6.36247 149.796 13.1174C149.796 19.8723 154.402 25.1511 160.716 26.1282L160.716 22.866Z" fill="black"/>
<path fill-rule="evenodd" clip-rule="evenodd" d="M165.989 22.866C170.37 21.9231 173.468 18.0817 173.468 13.1174C173.468 8.15241 170.37 4.31105 165.989 3.36872L165.989 0.105904C172.303 1.08298 176.909 6.36247 176.909 13.1174C176.909 19.8723 172.303 25.1511 165.989 26.1282L165.989 22.866Z" fill="black"/>
</svg>
