<svg width="99" height="8" viewBox="0 0 99 8" fill="none" xmlns="http://www.w3.org/2000/svg">
<path d="M0 7.325L0 0L2.1243 0L2.1243 5.49L6.26994 5.49V7.325L0 7.325Z" fill="black"/>
<path d="M13.926 0.000244141V1.70274L9.71009 1.70274V2.66274L12.2161 2.66274V4.40524L9.71009 4.40524V5.53024L14.3303 5.53024V7.32524L7.58579 7.32524L7.58579 0.000244141L13.926 0.000244141Z" fill="black"/>
<path d="M17.7704 3.02274L19.8847 3.02274C20.417 3.02274 20.6832 2.81774 20.6832 2.40274C20.6832 2.18274 20.6154 2.02524 20.4798 1.92774C20.3442 1.83274 20.1458 1.78274 19.8847 1.78274L17.7704 1.78274V3.02024V3.02274ZM20.1533 0.000244141C20.5601 0.000244141 20.9318 0.0527441 21.2657 0.155244C21.5997 0.257744 21.8859 0.410244 22.1194 0.612744C22.353 0.815244 22.5363 1.06774 22.6643 1.36524C22.7924 1.66524 22.8552 2.01274 22.8552 2.41274C22.8552 2.92774 22.7372 3.36524 22.5036 3.72274C22.2701 4.08024 21.9412 4.34774 21.5193 4.52774L23.1163 7.32274H20.879L19.4377 4.77524L17.7704 4.77524V7.32274H15.6461L15.6461 0.000244141L20.1533 0.000244141Z" fill="black"/>
<path d="M30.6819 0.000244141V1.70274L26.4634 1.70274V2.66274L28.9719 2.66274V4.40524L26.4634 4.40524V5.53024L31.0861 5.53024V7.32524L24.3391 7.32524V0.000244141L30.6819 0.000244141Z" fill="black"/>
<path d="M34.5262 3.02274L36.6404 3.02274C37.1728 3.02274 37.4389 2.81774 37.4389 2.40274C37.4389 2.18274 37.3711 2.02524 37.2356 1.92774C37.1 1.83274 36.9016 1.78274 36.6404 1.78274L34.5262 1.78274V3.02024V3.02274ZM36.9091 0.000244141C37.3159 0.000244141 37.6875 0.0527441 38.0215 0.155244C38.3555 0.257744 38.6417 0.410244 38.8752 0.612744C39.1088 0.815244 39.2921 1.06774 39.4201 1.36524C39.5482 1.66524 39.6109 2.01274 39.6109 2.41274C39.6109 2.92774 39.4929 3.36524 39.2594 3.72274C39.0259 4.08024 38.6969 4.34774 38.2751 4.52774L39.8721 7.32274H37.6348L36.1935 4.77524L34.5262 4.77524V7.32274H32.4019V0.000244141L36.9091 0.000244141Z" fill="black"/>
<path d="M45.9637 4.58024V7.32524H43.8394V0.000244141L45.9637 0.000244141V2.74524L49.105 2.74524V0.000244141L51.2268 0.000244141V7.32524H49.105V4.58024L45.9637 4.58024Z" fill="black"/>
<path d="M55.1339 0.000244141L53.0096 0.000244141V7.32524H55.1339V0.000244141Z" fill="black"/>
<path d="M59.031 3.15774L61.1753 3.15774C61.4515 3.15774 61.6574 3.10024 61.793 2.98274C61.9286 2.86524 61.9939 2.70024 61.9939 2.48774C61.9939 2.04024 61.7202 1.81774 61.1753 1.81774L59.031 1.81774V3.15774ZM61.434 0.000244141C62.2827 0.000244141 62.9506 0.210244 63.4377 0.630244C63.9249 1.05024 64.1684 1.66774 64.1684 2.48774C64.1684 3.30774 63.9274 3.92524 63.4428 4.34524C62.9607 4.76524 62.2902 4.97524 61.4315 4.97524L59.0284 4.97524V7.32774H56.9142V0.000244141L61.4315 0.000244141L61.434 0.000244141Z" fill="black"/>
<path d="M67.6612 3.15774L69.8056 3.15774C70.0818 3.15774 70.2877 3.10024 70.4233 2.98274C70.5589 2.86524 70.6242 2.70024 70.6242 2.48774C70.6242 2.04024 70.3505 1.81774 69.8056 1.81774L67.6612 1.81774V3.15774ZM70.0667 0.000244141C70.9154 0.000244141 71.5834 0.210244 72.0705 0.630244C72.5576 1.05024 72.8012 1.66774 72.8012 2.48774C72.8012 3.30774 72.5601 3.92524 72.0755 4.34524C71.5934 4.76524 70.923 4.97524 70.0642 4.97524L67.6612 4.97524V7.32774H65.547V0.000244141L70.0642 0.000244141L70.0667 0.000244141Z" fill="black"/>
<path d="M80.52 0.000244141V1.70274L76.3041 1.70274V2.66274L78.81 2.66274V4.40524L76.3041 4.40524V5.53024L80.9243 5.53024V7.32524L74.1798 7.32524V0.000244141L80.52 0.000244141Z" fill="black"/>
<path d="M85.7729 2.37274L84.8715 4.56024H86.6744L85.7729 2.37274ZM84.1483 6.29275L83.724 7.32524H81.5695L84.7083 0.000244141L86.9983 0.000244141L90.117 7.32524L87.8269 7.32524L87.4026 6.29275L84.1483 6.29275Z" fill="black"/>
<path d="M95.7466 5.13774C96.0128 4.83524 96.1459 4.43274 96.1459 3.93024V0.000244141L98.2501 0.000244141V4.06524C98.2501 4.54774 98.1722 4.99774 98.0166 5.41774C97.8609 5.83774 97.6299 6.20274 97.3235 6.51025C97.0172 6.82025 96.6355 7.06275 96.1835 7.23775C95.7316 7.41274 95.2068 7.50025 94.6142 7.50025C94.0216 7.50025 93.4641 7.41274 93.0071 7.23775C92.5501 7.06275 92.1685 6.82274 91.8621 6.51524C91.5558 6.21024 91.3248 5.84524 91.1716 5.42774C91.0184 5.00774 90.9431 4.55524 90.9431 4.06524V0.000244141L93.0774 0.000244141V3.93024C93.0774 4.43274 93.208 4.83524 93.4717 5.13774C93.7353 5.44024 94.1145 5.59274 94.6117 5.59274C95.1088 5.59274 95.4805 5.44024 95.7466 5.13774Z" fill="black"/>
</svg>
