<svg width="250" height="27" viewBox="0 0 250 27" fill="none" xmlns="http://www.w3.org/2000/svg">
<g clip-path="url(#clip0_340_86)">
<path d="M233.13 20.3915H235.862C236.085 21.1492 236.453 21.8302 236.957 22.4249C238.091 23.7677 239.748 24.4391 241.938 24.4391C243.672 24.4391 244.99 24.0938 245.891 23.4224C246.793 22.751 247.248 21.8781 247.248 20.8423C247.248 19.9598 246.89 19.2597 246.163 18.7417C245.436 18.2142 244.399 17.773 243.072 17.3893C242.829 17.3126 242.432 17.1975 241.899 17.0536C241.366 16.9193 240.94 16.8043 240.64 16.7179C240.339 16.6412 239.932 16.5261 239.428 16.363C238.915 16.2 238.517 16.0561 238.217 15.9314C237.917 15.8067 237.548 15.6341 237.132 15.4135C236.705 15.2121 236.366 15.0011 236.114 14.7996C235.862 14.5982 235.581 14.3488 235.291 14.0707C235 13.7829 234.767 13.476 234.622 13.1595C234.477 12.843 234.341 12.4881 234.225 12.0852C234.109 11.6824 234.06 11.2604 234.06 10.7904C234.06 9.15025 234.758 7.74031 236.153 6.56056C237.558 5.3808 239.38 4.78613 241.647 4.78613C244.641 4.78613 246.899 5.77406 248.44 7.72112C249.089 8.57477 249.554 9.5531 249.845 10.6273H247.112C246.928 10.071 246.599 9.51473 246.143 8.97761C245.029 7.88418 243.527 7.32787 241.657 7.32787C240.136 7.32787 238.953 7.66357 238.091 8.33498C237.238 9.00638 236.812 9.82166 236.812 10.7808C236.812 11.2412 236.938 11.6632 237.209 12.0373C237.471 12.4114 237.791 12.7375 238.149 12.9868C238.517 13.2362 239.031 13.4856 239.69 13.7446C240.349 13.9939 240.93 14.1954 241.434 14.3296C241.948 14.4639 242.607 14.6366 243.44 14.8476C244.37 15.0874 245.184 15.3655 245.891 15.6629C246.599 15.9602 247.296 16.3343 247.955 16.8043C248.624 17.2646 249.138 17.8305 249.496 18.5115C249.855 19.1829 250.029 19.979 250.029 20.8519C250.029 22.5687 249.312 24.0266 247.878 25.2256C246.444 26.4149 244.477 27.0096 241.986 27.0096C238.731 27.0096 236.289 25.9162 234.671 23.7197C233.963 22.7797 233.469 21.6863 233.188 20.4106" fill="#303030"/>
<path d="M215.126 26.3956V5.3999H230V7.95123H217.859V14.5502H227.723V17.1015H217.859V23.8443H230V26.3956H215.126Z" fill="#303030"/>
<path d="M171.492 18.4443V5.3999H174.225V18.4539C174.225 20.2955 174.748 21.763 175.775 22.8372C176.802 23.921 178.159 24.4582 179.835 24.4582C181.512 24.4582 182.868 23.921 183.895 22.8372C184.923 21.763 185.446 20.2955 185.446 18.4539V5.3999H188.178V18.4539C188.178 21.0532 187.413 23.1345 185.882 24.6788C184.351 26.2326 182.326 26.9999 179.826 26.9999C177.326 26.9999 175.3 26.223 173.769 24.6788C172.238 23.1345 171.473 21.0532 171.473 18.4539L171.492 18.4443Z" fill="#303030"/>
<path d="M150.882 7.95123V5.3999H168.178V7.95123H160.901V26.3956H158.169V7.95123H150.891H150.882Z" fill="#303030"/>
<path d="M130.262 26.3956V5.3999H134.215L144.651 23.0866H144.709L144.671 22.7892V5.3999H147.403V26.3956H143.459L133.023 8.69937H132.965L132.994 8.99671V26.3573L130.262 26.3956Z" fill="#303030"/>
<path d="M111.017 26.3956V5.3999H125.891V7.95123H113.75V14.5502H123.614V17.1015H113.75V23.8443H125.891V26.3956H111.017Z" fill="#303030"/>
<path d="M88.1298 5.3999H91.0077L95.8721 23.8443H99.5155L104.38 5.3999H107.258L101.647 26.3956H93.75L88.1395 5.3999H88.1298Z" fill="#303030"/>
<path d="M60.5717 9.59138V5.3999H78.7888V9.59138H71.9574V26.3956H67.4128V9.59138H60.5814H60.5717Z" fill="#303030"/>
<path d="M40.2422 26.3956L45.6977 16.0464L40.5426 5.3999H45.3973L49.3508 13.9459H50.8624L54.8062 5.3999H59.6705L54.5058 16.0464L59.9709 26.3956H55.0485L50.8624 18.147H49.3508L45.155 26.3956H40.2422Z" fill="#303030"/>
<path d="M22.7907 26.3956V5.3999H38.7209V9.59138H27.3353V13.7924H36.4438V17.6962H27.3353V22.185H38.7209V26.386H22.7907V26.3956Z" fill="#303030"/>
<path d="M0.0193798 26.3956V5.3999H5.93992L14.2829 20.2475H14.5833L14.2829 17.6962V5.3999H18.8275V26.3956H12.9167L4.57364 11.548H4.27326L4.57364 14.0994V26.3956H0H0.0193798Z" fill="#303030"/>
<path d="M209.002 16.0464C209.99 14.9242 210.475 13.5718 210.475 11.9988C210.475 10.0805 209.777 8.49795 208.382 7.26065C206.977 6.01376 205.107 5.3999 202.733 5.3999H193.624V26.3956H196.366V18.5978H201.977L207.141 26.3956H210.32L204.855 18.3004C206.638 17.9264 208.014 17.1686 209.002 16.0464ZM196.357 16.0464V7.95123H202.733C204.38 7.95123 205.63 8.31571 206.473 9.04466C207.316 9.76402 207.742 10.7615 207.742 11.9988C207.742 13.2361 207.326 14.2145 206.473 14.953C205.62 15.682 204.38 16.0464 202.733 16.0464H196.357Z" fill="#303030"/>
</g>
<defs>
<clipPath id="clip0_340_86">
<rect width="250" height="27" fill="#303030"/>
</clipPath>
</defs>
</svg>
