<svg width="99" height="64" viewBox="0 0 99 64" fill="none" xmlns="http://www.w3.org/2000/svg">
<g id="Frame" clip-path="url(#clip0_6394_4812)">
<g id="Clip path group">
<mask id="mask0_6394_4812" style="mask-type:luminance" maskUnits="userSpaceOnUse" x="0" y="0" width="99" height="64">
<g id="clip0_578_1651">
<path id="Vector" d="M98.4242 0H0V63.8844H98.4242V0Z" fill="black"/>
</g>
</mask>
<g mask="url(#mask0_6394_4812)">
<g id="Group">
<path id="Vector_2" d="M0 63.023V0.863403H14.3307C26.6514 0.863403 32.3657 5.94221 32.3657 19.2028C32.3657 32.4633 26.6471 37.5422 14.3307 37.5422H9.98198V63.0275H0V63.023ZM9.98626 28.7581H13.8527C20.3736 28.7581 22.388 26.6043 22.388 19.2028C22.388 11.8013 20.3736 9.6475 13.8527 9.6475H9.98626V28.7581Z" fill="black"/>
<path id="Vector_3" d="M45.1903 10.1586H35.5283V0.863403H64.8384V10.1586H55.1767V63.023H45.1903V10.1586Z" fill="black"/>
<path id="Vector_4" d="M93.5593 34.0449C93.4357 34.2093 93.3118 34.3735 93.1454 34.5926C93.1241 34.1363 93.077 33.7392 93.0899 33.3467C93.1026 32.9589 93.1753 32.5757 93.2222 32.1877C93.2052 32.1786 93.1923 32.1695 93.1753 32.1604C93.1112 32.2059 93.0428 32.2562 92.979 32.3065C92.9063 31.9139 92.8382 31.5262 92.7655 31.1381C92.7485 31.0424 92.7186 30.9467 92.6844 30.8598C92.6204 30.7001 92.5094 30.6774 92.4198 30.8143C91.959 31.5216 91.5535 32.2471 91.5705 33.1598C91.5748 33.4381 91.5406 33.7165 91.4981 33.9949C91.4639 34.2184 91.2121 34.2778 91.0158 34.1224C90.6275 33.8168 90.4014 33.3924 90.3203 32.895C90.1537 31.8639 90.4353 30.9603 91.0328 30.1525C91.0842 30.0795 91.1523 30.0204 91.1951 29.9426C91.2291 29.888 91.2377 29.8195 91.2549 29.7556C91.1908 29.7326 91.1181 29.6826 91.0584 29.6917C90.4994 29.7829 89.9829 29.9883 89.5306 30.3578C89.1038 30.7047 88.8265 31.1657 88.6345 31.6903C88.596 31.7954 88.5534 31.8957 88.5066 31.996C88.4169 32.1877 88.2077 32.1968 88.1054 32.0144C87.9303 31.7085 87.8706 31.3663 87.8875 31.0103C87.9729 29.2673 89.0954 28.1357 90.6103 27.7797C90.7299 27.7525 90.8451 27.7113 90.9647 27.6746C90.9647 27.6565 90.969 27.6383 90.973 27.6201C90.8408 27.588 90.7129 27.538 90.5804 27.5241C89.8122 27.465 89.0868 27.6201 88.3997 28.0124C88.2632 28.0899 88.0967 28.1038 87.9346 28.1493C87.8321 27.807 87.9048 27.5425 88.0542 27.2914C88.4511 26.6344 89.027 26.2373 89.7099 26.0138C90.2476 25.8405 90.7982 25.7811 91.3572 25.8768C91.7242 25.9408 91.7668 25.8768 91.8863 25.5073C92.2321 24.403 92.8167 23.4995 93.8581 23.0249C94.0714 22.9291 94.3275 22.9154 94.5623 22.8926C94.7413 22.8743 94.7841 22.9564 94.6945 23.1344C94.5111 23.4995 94.3105 23.8508 94.1312 24.2204C93.9306 24.6357 93.7472 25.0601 93.5593 25.4845C93.5466 25.5118 93.5466 25.5485 93.5294 25.6306C93.6446 25.6167 93.7513 25.6306 93.8366 25.5894C94.5367 25.2472 95.275 25.2426 96.0174 25.3065C96.2651 25.3292 96.5039 25.4891 96.743 25.5894C96.7772 25.603 96.8069 25.6396 96.8327 25.6715C97.0546 25.918 96.9862 26.1734 96.6833 26.2555C96.1582 26.397 95.6334 26.5339 95.1127 26.6847C95.0017 26.7165 94.8994 26.7759 94.7928 26.8261C94.7928 26.8489 94.7928 26.8671 94.7928 26.8898C94.908 26.9082 95.023 26.9401 95.1382 26.9401C95.676 26.931 96.2137 26.9537 96.7258 27.1545C97.4558 27.4465 98.0148 27.9576 98.3134 28.7427C98.3732 28.9023 98.3775 29.0892 98.4074 29.2628L98.3519 29.3267C98.1941 29.281 98.0274 29.2537 97.8866 29.1807C97.4684 28.9617 97.0503 28.7609 96.5807 28.6924C96.0346 28.6149 95.5012 28.6558 94.9293 28.8018C95.0189 28.8657 95.0787 28.916 95.1468 28.9523C95.6975 29.2537 96.1797 29.6551 96.5893 30.1434C97.1143 30.7686 97.2595 31.5171 97.127 32.3337C97.0888 32.5573 96.9137 32.6212 96.7473 32.4707C96.5936 32.3292 96.4571 32.165 96.3163 32.0099C95.7871 31.4256 95.1937 30.9282 94.4812 30.6226C94.3531 30.5678 94.2166 30.5359 94.0757 30.4902C93.9519 30.8552 94.0116 31.1793 94.0757 31.4986C94.1781 31.9869 94.3019 32.4706 94.4171 32.9589C94.4427 33.0638 94.4427 33.1734 94.464 33.3376C94.2806 33.2052 94.1398 33.1004 93.9947 33.0001L93.9435 33.041C94.0628 33.2098 94.1611 33.4197 94.3146 33.543C94.5367 33.7211 94.656 33.9401 94.6988 34.2184C94.7798 34.734 94.8652 35.2496 94.9462 35.7606C94.9549 35.8063 94.9462 35.8566 94.9462 35.9751C94.5623 35.7151 94.2209 35.4822 93.8708 35.245C93.9093 35.6285 94.08 35.916 94.4042 36.0847C94.5666 36.1713 94.7457 36.2262 94.908 36.3083C94.9592 36.3358 95.0189 36.404 95.023 36.4588C95.0572 36.9883 95.0787 37.5175 95.1043 38.047C95.1043 38.0561 95.0871 38.0697 95.0787 38.0788C94.7586 38.1154 94.5879 37.805 94.289 37.668C94.4298 38.1427 94.7244 38.389 95.1512 38.5716C95.1043 39.0233 95.0488 39.4934 95.006 39.9635C94.9891 40.1459 94.8908 40.1459 94.7586 40.1231C94.5281 40.0774 94.2976 40.0456 94.0587 40.0274C94.2849 40.2919 94.5792 40.4197 94.8951 40.5154C94.8951 40.5154 94.908 40.5384 94.908 40.5475C94.8267 40.9673 94.7244 41.0494 94.3275 40.9444C93.905 40.835 93.4825 40.7208 93.0727 40.5657C92.7528 40.4424 92.6502 40.2143 92.7698 39.8766C92.8339 39.6988 93.0173 39.5709 93.1411 39.4113C93.3331 39.1693 93.5251 38.923 93.6915 38.6537C93.3032 38.6858 93.2052 39.1602 92.8126 39.2471C92.8508 38.9275 92.885 38.6355 92.9235 38.339C92.9362 38.2293 92.979 38.12 92.9833 38.0103C92.9917 37.6726 93.1325 37.3942 93.3245 37.1388C93.4995 36.9153 93.5679 36.6505 93.5679 36.2992C93.4058 36.5273 93.2776 36.7099 93.1198 36.9335C93.1198 36.5594 93.1198 36.2444 93.1198 35.9251C93.1198 35.8063 93.1411 35.6876 93.1454 35.5691C93.1497 35.3456 93.171 35.1493 93.3161 34.953C93.4995 34.7019 93.6191 34.4008 93.6064 34.0679C93.5849 34.054 93.5679 34.0449 93.5466 34.0313" fill="black"/>
<path id="Vector_5" d="M88.1675 17.6367V16.7879C88.1675 11.5357 85.9143 9.29519 83.3366 9.29519C79.3122 9.29519 78.0233 11.5357 78.0233 16.181V47.6988C78.0233 52.3488 79.3122 54.5847 83.3366 54.5847C86.9598 54.5847 88.1675 52.344 88.1675 48.301V46.7725H98.1539V47.959C98.1539 56.7429 93.3228 63.8889 83.3366 63.8889C73.3502 63.8889 68.0371 56.7429 68.0371 47.959V15.93C68.0371 7.15048 72.868 0 83.3366 0C93.805 0 98.1539 7.74827 98.1539 17.048V17.6367H88.1675Z" fill="black"/>
</g>
</g>
</g>
</g>
<defs>
<clipPath id="clip0_6394_4812">
<rect width="98.5397" height="64" fill="black"/>
</clipPath>
</defs>
</svg>
