<svg width="223" height="62" viewBox="0 0 223 62" fill="none" xmlns="http://www.w3.org/2000/svg">
<path fill-rule="evenodd" clip-rule="evenodd" d="M28.364 2.40965L50.9904 15.6546C51.7451 16.0964 52.2092 16.9077 52.2092 17.7852V44.3426C52.2092 45.22 51.7451 46.0314 50.9904 46.4732L28.364 59.7181C27.6003 60.1652 26.6563 60.1652 25.8926 59.7181L3.26617 46.4732C2.5115 46.0314 2.04736 45.22 2.04736 44.3426V17.7852C2.04736 16.9077 2.51151 16.0964 3.26617 15.6546L25.8926 2.40965C26.6563 1.96258 27.6003 1.96258 28.364 2.40965ZM25.0099 0.88779C26.3191 0.121387 27.9375 0.121388 29.2467 0.887792L51.8731 14.1327C53.1668 14.89 53.9625 16.281 53.9625 17.7852V44.3426C53.9625 45.8468 53.1668 47.2377 51.8731 47.995L29.2467 61.24C27.9375 62.0064 26.3191 62.0064 25.0099 61.24L2.3835 47.995C1.08979 47.2377 0.294115 45.8468 0.294115 44.3426V17.7852C0.294115 16.281 1.08979 14.89 2.3835 14.1327L25.0099 0.88779ZM10.7782 18.2848C10.7782 17.9459 11.0529 17.6712 11.3918 17.6712C11.7307 17.6712 12.0055 17.9459 12.0055 18.2848V43.3437C12.0055 43.6826 11.7307 43.9573 11.3918 43.9573C11.0529 43.9573 10.7782 43.6826 10.7782 43.3437V18.2848ZM16.0881 21.0826C16.0881 20.7437 16.3628 20.4689 16.7017 20.4689C17.0406 20.4689 17.3154 20.7437 17.3154 21.0826V33.9703C17.3154 34.3092 17.0406 34.584 16.7017 34.584C16.3628 34.584 16.0881 34.3092 16.0881 33.9703V21.0826ZM21.8813 17.6728C21.5424 17.6728 21.2677 17.9475 21.2677 18.2864V33.9703C21.2677 34.3092 21.5424 34.584 21.8813 34.584C22.2202 34.584 22.4949 34.3092 22.4949 33.9703V18.2864C22.4949 17.9475 22.2202 17.6728 21.8813 17.6728ZM31.547 18.2864C31.547 17.9475 31.8218 17.6728 32.1607 17.6728C32.4996 17.6728 32.7743 17.9475 32.7743 18.2864V33.9703C32.7743 34.3092 32.4996 34.584 32.1607 34.584C31.8218 34.584 31.547 34.3092 31.547 33.9703V18.2864ZM27.1283 20.4689C26.7894 20.4689 26.5147 20.7437 26.5147 21.0826V33.9703C26.5147 34.3092 26.7894 34.584 27.1283 34.584C27.4672 34.584 27.7419 34.3092 27.7419 33.9703V21.0826C27.7419 20.7437 27.4672 20.4689 27.1283 20.4689ZM36.9412 21.0826C36.9412 20.7437 37.216 20.4689 37.5549 20.4689C37.8938 20.4689 38.1685 20.7437 38.1685 21.0826V33.9703C38.1685 34.3092 37.8938 34.584 37.5549 34.584C37.216 34.584 36.9412 34.3092 36.9412 33.9703V21.0826ZM42.5141 17.6712C42.1752 17.6712 41.9005 17.9459 41.9005 18.2848V43.3437C41.9005 43.6826 42.1752 43.9573 42.5141 43.9573C42.853 43.9573 43.1278 43.6826 43.1278 43.3437V18.2848C43.1278 17.9459 42.853 17.6712 42.5141 17.6712ZM37.0801 43.7517C36.4321 43.7517 35.915 43.561 35.5289 43.1796C35.1427 42.7916 34.9496 42.2721 34.9496 41.6211V38.7607C34.9496 38.1162 35.1427 37.6033 35.5289 37.2219C35.915 36.834 36.4321 36.64 37.0801 36.64C37.7281 36.64 38.2452 36.834 38.6314 37.2219C39.0241 37.6033 39.2205 38.1162 39.2205 38.7607V41.6211C39.2205 42.2721 39.0241 42.7916 38.6314 43.1796C38.2452 43.561 37.7281 43.7517 37.0801 43.7517ZM37.0801 42.5582C37.3092 42.5582 37.4925 42.4825 37.6299 42.3313C37.7674 42.1735 37.8361 41.9631 37.8361 41.7V38.6916C37.8361 38.4286 37.7674 38.2215 37.6299 38.0702C37.4925 37.919 37.3092 37.8433 37.0801 37.8433C36.851 37.8433 36.6678 37.919 36.5303 38.0702C36.3994 38.2215 36.3339 38.4286 36.3339 38.6916V41.7C36.3339 41.9631 36.3994 42.1735 36.5303 42.3313C36.6678 42.4825 36.851 42.5582 37.0801 42.5582ZM15.9128 36.7536C15.9651 36.7338 16.0142 36.724 16.06 36.724H17.3036C17.3363 36.724 17.3625 36.7371 17.3821 36.7634C17.4083 36.7831 17.4214 36.8094 17.4214 36.8423V43.5101C17.4214 43.543 17.4083 43.5726 17.3821 43.5989C17.3625 43.6186 17.3363 43.6285 17.3036 43.6285H16.1794C16.1466 43.6285 16.1172 43.6186 16.091 43.5989C16.0714 43.5726 16.0616 43.543 16.0616 43.5101V38.1246C16.0616 38.1114 16.055 38.0983 16.0419 38.0851C16.0354 38.072 16.0256 38.0687 16.0125 38.0753L14.8426 38.9475L14.8033 38.9574C14.7444 38.9574 14.6855 38.9452 14.6855 38.8728V37.8991C14.6855 37.8334 14.7149 37.7874 14.7739 37.7611L15.9128 36.7536ZM26.374 36.7536C26.4264 36.7338 26.4755 36.724 26.5213 36.724H27.7648C27.7975 36.724 27.8237 36.7371 27.8434 36.7634C27.8695 36.7831 27.8826 36.8094 27.8826 36.8423V43.5101C27.8826 43.543 27.8695 43.5726 27.8434 43.5989C27.8237 43.6186 27.7975 43.6285 27.7648 43.6285H26.6406C26.6079 43.6285 26.5784 43.6186 26.5523 43.5989C26.5326 43.5726 26.5228 43.543 26.5228 43.5101V38.1246C26.5228 38.1114 26.5163 38.0983 26.5032 38.0851C26.4966 38.072 26.4868 38.0687 26.4737 38.0753L25.3038 38.9475L25.2645 38.9574C25.2056 38.9574 25.1467 38.9452 25.1467 38.8728V37.8991C25.1467 37.8334 25.1762 37.7874 25.2351 37.7611L26.374 36.7536ZM31.4986 36.724C31.4528 36.724 31.4037 36.7338 31.3513 36.7536L30.2124 37.7611C30.1535 37.7874 30.124 37.8334 30.124 37.8991V38.8728C30.124 38.9452 30.1829 38.9574 30.2418 38.9574L30.2811 38.9475L31.451 38.0753C31.4641 38.0687 31.4739 38.072 31.4805 38.0851C31.4936 38.0983 31.5001 38.1114 31.5001 38.1246V43.5101C31.5001 43.543 31.5099 43.5726 31.5296 43.5989C31.5557 43.6186 31.5852 43.6285 31.6179 43.6285H32.7421C32.7748 43.6285 32.801 43.6186 32.8207 43.5989C32.8468 43.5726 32.8599 43.543 32.8599 43.5101V36.8423C32.8599 36.8094 32.8468 36.7831 32.8207 36.7634C32.801 36.7371 32.7748 36.724 32.7421 36.724H31.4986ZM19.7965 43.1796C20.1826 43.561 20.6997 43.7517 21.3477 43.7517C21.9957 43.7517 22.5128 43.561 22.899 43.1796C23.2917 42.7916 23.4881 42.2721 23.4881 41.6211V38.7607C23.4881 38.1162 23.2917 37.6033 22.899 37.2219C22.5128 36.834 21.9957 36.64 21.3477 36.64C20.6997 36.64 20.1826 36.834 19.7965 37.2219C19.4103 37.6033 19.2172 38.1162 19.2172 38.7607V41.6211C19.2172 42.2721 19.4103 42.7916 19.7965 43.1796ZM21.8976 42.3313C21.7601 42.4825 21.5768 42.5582 21.3477 42.5582C21.1187 42.5582 20.9354 42.4825 20.7979 42.3313C20.667 42.1735 20.6016 41.9631 20.6016 41.7V38.6916C20.6016 38.4286 20.667 38.2215 20.7979 38.0702C20.9354 37.919 21.1187 37.8433 21.3477 37.8433C21.5768 37.8433 21.7601 37.919 21.8976 38.0702C22.035 38.2215 22.1037 38.4286 22.1037 38.6916V41.7C22.1037 41.9631 22.035 42.1735 21.8976 42.3313Z" fill="black"/>
<path d="M80.5008 26.4689H79.5237C79.4388 26.1291 79.283 25.7279 79.0564 25.2653C78.8393 24.7933 78.5939 24.3496 78.3201 23.9342C78.0369 23.5 77.7254 23.1224 77.3855 22.8014C77.0551 22.471 76.7342 22.2822 76.4226 22.235C76.13 22.1973 75.7618 22.1689 75.3181 22.1501C74.8745 22.1312 74.4638 22.1217 74.0862 22.1217H73.2649V38.1935C73.2649 38.505 73.331 38.793 73.4632 39.0573C73.5953 39.3122 73.8266 39.5104 74.157 39.652C74.3269 39.7181 74.6809 39.8078 75.219 39.9211C75.7666 40.0343 76.1914 40.0957 76.4934 40.1051V41.1105H67.0061V40.1051C67.2705 40.0863 67.6717 40.0485 68.2097 39.9919C68.7573 39.9352 69.1349 39.8644 69.3426 39.7794C69.6541 39.6567 69.8806 39.4821 70.0222 39.2555C70.1733 39.0195 70.2488 38.708 70.2488 38.321V22.1217H69.4275C69.1349 22.1217 68.7714 22.1312 68.3372 22.1501C67.9029 22.1595 67.4876 22.1878 67.0911 22.235C66.7796 22.2728 66.4539 22.4616 66.114 22.8014C65.7836 23.1318 65.4768 23.5094 65.1936 23.9342C64.9104 24.359 64.6603 24.8122 64.4431 25.2936C64.226 25.7656 64.075 26.1574 63.99 26.4689H62.9988V21.0172H80.5008V26.4689Z" fill="black"/>
<path d="M95.1803 37.8253C94.595 38.9393 93.8115 39.8267 92.8297 40.4875C91.848 41.1483 90.7199 41.4787 89.4454 41.4787C88.3221 41.4787 87.3356 41.2804 86.486 40.8839C85.6458 40.4875 84.952 39.9494 84.4044 39.2697C83.8569 38.59 83.4463 37.797 83.1725 36.8908C82.9082 35.9845 82.776 35.0264 82.776 34.0163C82.776 33.11 82.9176 32.2226 83.2008 31.3542C83.4935 30.4762 83.9183 29.688 84.4752 28.9894C85.0133 28.3192 85.6788 27.7811 86.4718 27.3752C87.2742 26.9598 88.171 26.7521 89.1622 26.7521C90.1818 26.7521 91.055 26.9126 91.7819 27.2336C92.5088 27.5545 93.0988 27.9935 93.5519 28.5504C93.9861 29.0791 94.3071 29.7021 94.5148 30.4196C94.7319 31.137 94.8405 31.9158 94.8405 32.756V33.6906H85.5939C85.5939 34.6063 85.6788 35.437 85.8488 36.1828C86.0281 36.9285 86.3066 37.5846 86.6842 38.151C87.0524 38.6986 87.5338 39.1328 88.1286 39.4538C88.7233 39.7653 89.4313 39.9211 90.2526 39.9211C91.0927 39.9211 91.8149 39.7275 92.4191 39.3405C93.0327 38.944 93.6227 38.236 94.1891 37.2165L95.1803 37.8253ZM92.0509 32.5011C92.0509 31.9725 92.0037 31.4061 91.9093 30.8019C91.8244 30.1977 91.6828 29.6927 91.4845 29.2868C91.2674 28.8525 90.97 28.4985 90.5924 28.2248C90.2148 27.951 89.7287 27.8141 89.1339 27.8141C88.1427 27.8141 87.3167 28.2295 86.6559 29.0602C86.0045 29.8815 85.6505 31.0285 85.5939 32.5011H92.0509Z" fill="black"/>
<path d="M113.23 41.1105H106.391V40.1759C106.608 40.1571 106.844 40.1382 107.099 40.1193C107.363 40.1004 107.58 40.0627 107.75 40.006C108.014 39.9211 108.208 39.7747 108.331 39.567C108.463 39.3499 108.529 39.0714 108.529 38.7316V31.5524C108.529 30.5612 108.293 29.7965 107.821 29.2585C107.358 28.7204 106.792 28.4513 106.122 28.4513C105.621 28.4513 105.163 28.5316 104.748 28.692C104.333 28.8431 103.965 29.0319 103.644 29.2585C103.332 29.4756 103.082 29.7116 102.893 29.9665C102.714 30.2119 102.582 30.4101 102.497 30.5612V38.59C102.497 38.911 102.563 39.1753 102.695 39.383C102.827 39.5906 103.025 39.7511 103.29 39.8644C103.488 39.9588 103.7 40.0296 103.927 40.0768C104.163 40.124 104.403 40.1571 104.649 40.1759V41.1105H97.8096V40.1759C98.0267 40.1571 98.2485 40.1382 98.4751 40.1193C98.7111 40.1004 98.9141 40.0627 99.084 40.006C99.3483 39.9211 99.5418 39.7747 99.6646 39.567C99.7967 39.3499 99.8628 39.0714 99.8628 38.7316V30.1081C99.8628 29.7871 99.792 29.4945 99.6504 29.2301C99.5182 28.9564 99.3294 28.7345 99.084 28.5646C98.9046 28.4513 98.6922 28.3711 98.4468 28.3239C98.2013 28.2672 97.937 28.2295 97.6538 28.2106V27.2902L102.298 26.9787L102.497 27.1769V29.1452H102.567C102.794 28.9186 103.077 28.6496 103.417 28.338C103.757 28.0171 104.078 27.7575 104.38 27.5592C104.729 27.3327 105.145 27.1439 105.626 26.9928C106.107 26.8418 106.65 26.7663 107.254 26.7663C108.595 26.7663 109.586 27.1864 110.228 28.0265C110.879 28.8572 111.205 29.9665 111.205 31.3542V38.6183C111.205 38.9487 111.262 39.2178 111.375 39.4254C111.488 39.6237 111.682 39.7794 111.956 39.8927C112.182 39.9871 112.376 40.0532 112.536 40.091C112.706 40.1287 112.937 40.1571 113.23 40.1759V41.1105Z" fill="black"/>
<path d="M132.554 23.3961C133.441 24.3213 134.135 25.4399 134.636 26.7521C135.136 28.0548 135.386 29.4992 135.386 31.0851C135.386 32.6805 135.131 34.1295 134.621 35.4323C134.112 36.735 133.404 37.8442 132.497 38.7599C131.619 39.6662 130.6 40.3647 129.439 40.8556C128.278 41.3465 127.041 41.5919 125.729 41.5919C124.332 41.5919 123.038 41.3323 121.849 40.8131C120.669 40.2845 119.654 39.5529 118.805 38.6183C117.955 37.7026 117.285 36.5934 116.794 35.2907C116.312 33.9785 116.072 32.5766 116.072 31.0851C116.072 29.452 116.327 27.9982 116.836 26.7238C117.346 25.4399 118.049 24.3307 118.946 23.3961C119.834 22.471 120.862 21.763 122.033 21.2721C123.213 20.7812 124.445 20.5358 125.729 20.5358C127.06 20.5358 128.315 20.786 129.495 21.2863C130.675 21.7866 131.695 22.4899 132.554 23.3961ZM130.444 37.6413C130.973 36.7822 131.355 35.8099 131.591 34.7243C131.837 33.6387 131.959 32.4256 131.959 31.0851C131.959 29.7069 131.822 28.4419 131.549 27.2902C131.284 26.1385 130.893 25.1567 130.373 24.3449C129.854 23.5425 129.203 22.9194 128.419 22.4757C127.636 22.0226 126.739 21.7961 125.729 21.7961C124.596 21.7961 123.633 22.0557 122.84 22.5749C122.047 23.0941 121.401 23.7879 120.9 24.6564C120.428 25.4871 120.074 26.4595 119.838 27.5734C119.612 28.6873 119.498 29.8579 119.498 31.0851C119.498 32.4445 119.621 33.6717 119.867 34.7668C120.112 35.8618 120.499 36.8341 121.028 37.6837C121.537 38.5145 122.179 39.1658 122.953 39.6378C123.728 40.1004 124.653 40.3317 125.729 40.3317C126.739 40.3317 127.65 40.0957 128.462 39.6237C129.274 39.1517 129.934 38.4909 130.444 37.6413Z" fill="black"/>
<path d="M153.974 41.1105H147.134V40.1759C147.352 40.1571 147.588 40.1382 147.842 40.1193C148.107 40.1004 148.324 40.0627 148.494 40.006C148.758 39.9211 148.952 39.7747 149.074 39.567C149.207 39.3499 149.273 39.0714 149.273 38.7316V31.5524C149.273 30.5612 149.037 29.7965 148.565 29.2585C148.102 28.7204 147.536 28.4513 146.865 28.4513C146.365 28.4513 145.907 28.5316 145.492 28.692C145.077 28.8431 144.708 29.0319 144.387 29.2585C144.076 29.4756 143.826 29.7116 143.637 29.9665C143.458 30.2119 143.325 30.4101 143.24 30.5612V38.59C143.24 38.911 143.307 39.1753 143.439 39.383C143.571 39.5906 143.769 39.7511 144.033 39.8644C144.232 39.9588 144.444 40.0296 144.671 40.0768C144.907 40.124 145.147 40.1571 145.393 40.1759V41.1105H138.553V40.1759C138.771 40.1571 138.992 40.1382 139.219 40.1193C139.455 40.1004 139.658 40.0627 139.828 40.006C140.092 39.9211 140.286 39.7747 140.408 39.567C140.541 39.3499 140.607 39.0714 140.607 38.7316V30.1081C140.607 29.7871 140.536 29.4945 140.394 29.2301C140.262 28.9564 140.073 28.7345 139.828 28.5646C139.648 28.4513 139.436 28.3711 139.191 28.3239C138.945 28.2672 138.681 28.2295 138.398 28.2106V27.2902L143.042 26.9787L143.24 27.1769V29.1452H143.311C143.538 28.9186 143.821 28.6496 144.161 28.338C144.501 28.0171 144.822 27.7575 145.124 27.5592C145.473 27.3327 145.888 27.1439 146.37 26.9928C146.851 26.8418 147.394 26.7663 147.998 26.7663C149.339 26.7663 150.33 27.1864 150.972 28.0265C151.623 28.8572 151.949 29.9665 151.949 31.3542V38.6183C151.949 38.9487 152.006 39.2178 152.119 39.4254C152.232 39.6237 152.426 39.7794 152.699 39.8927C152.926 39.9871 153.12 40.0532 153.28 40.091C153.45 40.1287 153.681 40.1571 153.974 40.1759V41.1105Z" fill="black"/>
<path d="M169.107 37.8253C168.521 38.9393 167.738 39.8267 166.756 40.4875C165.774 41.1483 164.646 41.4787 163.372 41.4787C162.248 41.4787 161.262 41.2804 160.412 40.8839C159.572 40.4875 158.878 39.9494 158.331 39.2697C157.783 38.59 157.372 37.797 157.099 36.8908C156.834 35.9845 156.702 35.0264 156.702 34.0163C156.702 33.11 156.844 32.2226 157.127 31.3542C157.42 30.4762 157.844 29.688 158.401 28.9894C158.94 28.3192 159.605 27.7811 160.398 27.3752C161.2 26.9598 162.097 26.7521 163.088 26.7521C164.108 26.7521 164.981 26.9126 165.708 27.2336C166.435 27.5545 167.025 27.9935 167.478 28.5504C167.912 29.0791 168.233 29.7021 168.441 30.4196C168.658 31.137 168.767 31.9158 168.767 32.756V33.6906H159.52C159.52 34.6063 159.605 35.437 159.775 36.1828C159.954 36.9285 160.233 37.5846 160.61 38.151C160.979 38.6986 161.46 39.1328 162.055 39.4538C162.649 39.7653 163.357 39.9211 164.179 39.9211C165.019 39.9211 165.741 39.7275 166.345 39.3405C166.959 38.944 167.549 38.236 168.115 37.2165L169.107 37.8253ZM165.977 32.5011C165.977 31.9725 165.93 31.4061 165.836 30.8019C165.751 30.1977 165.609 29.6927 165.411 29.2868C165.194 28.8525 164.896 28.4985 164.519 28.2248C164.141 27.951 163.655 27.8141 163.06 27.8141C162.069 27.8141 161.243 28.2295 160.582 29.0602C159.931 29.8815 159.577 31.0285 159.52 32.5011H165.977Z" fill="black"/>
<path d="M188.431 26.4689H187.454C187.369 26.1291 187.213 25.7279 186.986 25.2653C186.769 24.7933 186.524 24.3496 186.25 23.9342C185.967 23.5 185.655 23.1224 185.315 22.8014C184.985 22.471 184.664 22.2822 184.352 22.235C184.06 22.1973 183.692 22.1689 183.248 22.1501C182.804 22.1312 182.394 22.1217 182.016 22.1217H181.195V38.1935C181.195 38.505 181.261 38.793 181.393 39.0573C181.525 39.3122 181.756 39.5104 182.087 39.652C182.257 39.7181 182.611 39.8078 183.149 39.9211C183.696 40.0343 184.121 40.0957 184.423 40.1051V41.1105H174.936V40.1051C175.2 40.0863 175.602 40.0485 176.14 39.9919C176.687 39.9352 177.065 39.8644 177.272 39.7794C177.584 39.6567 177.81 39.4821 177.952 39.2555C178.103 39.0195 178.179 38.708 178.179 38.321V22.1217H177.357C177.065 22.1217 176.701 22.1312 176.267 22.1501C175.833 22.1595 175.417 22.1878 175.021 22.235C174.709 22.2728 174.384 22.4616 174.044 22.8014C173.713 23.1318 173.407 23.5094 173.123 23.9342C172.84 24.359 172.59 24.8122 172.373 25.2936C172.156 25.7656 172.005 26.1574 171.92 26.4689H170.929V21.0172H188.431V26.4689Z" fill="black"/>
<path d="M203.11 37.8253C202.525 38.9393 201.741 39.8267 200.76 40.4875C199.778 41.1483 198.65 41.4787 197.375 41.4787C196.252 41.4787 195.265 41.2804 194.416 40.8839C193.576 40.4875 192.882 39.9494 192.334 39.2697C191.787 38.59 191.376 37.797 191.102 36.8908C190.838 35.9845 190.706 35.0264 190.706 34.0163C190.706 33.11 190.847 32.2226 191.131 31.3542C191.423 30.4762 191.848 29.688 192.405 28.9894C192.943 28.3192 193.609 27.7811 194.402 27.3752C195.204 26.9598 196.101 26.7521 197.092 26.7521C198.112 26.7521 198.985 26.9126 199.712 27.2336C200.439 27.5545 201.029 27.9935 201.482 28.5504C201.916 29.0791 202.237 29.7021 202.445 30.4196C202.662 31.137 202.77 31.9158 202.77 32.756V33.6906H193.524C193.524 34.6063 193.609 35.437 193.779 36.1828C193.958 36.9285 194.236 37.5846 194.614 38.151C194.982 38.6986 195.464 39.1328 196.058 39.4538C196.653 39.7653 197.361 39.9211 198.182 39.9211C199.023 39.9211 199.745 39.7275 200.349 39.3405C200.963 38.944 201.553 38.236 202.119 37.2165L203.11 37.8253ZM199.981 32.5011C199.981 31.9725 199.934 31.4061 199.839 30.8019C199.754 30.1977 199.613 29.6927 199.414 29.2868C199.197 28.8525 198.9 28.4985 198.522 28.2248C198.145 27.951 197.659 27.8141 197.064 27.8141C196.073 27.8141 195.247 28.2295 194.586 29.0602C193.934 29.8815 193.58 31.0285 193.524 32.5011H199.981Z" fill="black"/>
<path d="M221.16 41.1105H214.32V40.1759C214.538 40.1571 214.774 40.1382 215.028 40.1193C215.293 40.1004 215.51 40.0627 215.68 40.006C215.944 39.9211 216.138 39.7747 216.26 39.567C216.393 39.3499 216.459 39.0714 216.459 38.7316V31.5524C216.459 30.5612 216.223 29.7965 215.751 29.2585C215.288 28.7204 214.722 28.4513 214.051 28.4513C213.551 28.4513 213.093 28.5316 212.678 28.692C212.263 28.8431 211.894 29.0319 211.573 29.2585C211.262 29.4756 211.012 29.7116 210.823 29.9665C210.644 30.2119 210.511 30.4101 210.426 30.5612V38.59C210.426 38.911 210.493 39.1753 210.625 39.383C210.757 39.5906 210.955 39.7511 211.219 39.8644C211.418 39.9588 211.63 40.0296 211.857 40.0768C212.093 40.124 212.333 40.1571 212.579 40.1759V41.1105H205.739V40.1759C205.957 40.1571 206.178 40.1382 206.405 40.1193C206.641 40.1004 206.844 40.0627 207.014 40.006C207.278 39.9211 207.472 39.7747 207.594 39.567C207.727 39.3499 207.793 39.0714 207.793 38.7316V30.1081C207.793 29.7871 207.722 29.4945 207.58 29.2301C207.448 28.9564 207.259 28.7345 207.014 28.5646C206.834 28.4513 206.622 28.3711 206.377 28.3239C206.131 28.2672 205.867 28.2295 205.584 28.2106V27.2902L210.228 26.9787L210.426 27.1769V29.1452H210.497C210.724 28.9186 211.007 28.6496 211.347 28.338C211.687 28.0171 212.008 27.7575 212.31 27.5592C212.659 27.3327 213.074 27.1439 213.556 26.9928C214.037 26.8418 214.58 26.7663 215.184 26.7663C216.525 26.7663 217.516 27.1864 218.158 28.0265C218.809 28.8572 219.135 29.9665 219.135 31.3542V38.6183C219.135 38.9487 219.192 39.2178 219.305 39.4254C219.418 39.6237 219.612 39.7794 219.885 39.8927C220.112 39.9871 220.305 40.0532 220.466 40.091C220.636 40.1287 220.867 40.1571 221.16 40.1759V41.1105Z" fill="black"/>
</svg>
