<svg version="1.1" id="logo" xmlns="http://www.w3.org/2000/svg" xmlns:xlink="http://www.w3.org/1999/xlink" x="0px" y="0px" viewBox="0 0 489 139.9" style="enable-background:new 0 0 489 139.9;" xml:space="preserve">
<g>
	<path d="M316.4,36.6c-20.7,0-37.3,16.7-37.3,37c0,20.4,16.6,37,37.3,37s37.3-16.6,37.3-37C353.7,53.3,337,36.6,316.4,36.6z
		 M316.4,90.5c-8.9,0-15.5-6.9-15.5-16.8s6.6-16.8,15.5-16.8s15.5,6.9,15.5,16.8S325.2,90.5,316.4,90.5z"></path>
	<path d="M479.2,89.7c-5.9,0-8.3-2.4-8.3-8.5V56.7h11.6V37.8H471v-19l-21.7,6.4v12.6H440v18.9h9.3v30.7c0,13.6,8.5,22.1,22,22.1
		h13.5V89.7L479.2,89.7L479.2,89.7z"></path>
	<path d="M126.5,36.6c-5.9,0-11.6,2-15.8,5.5v-4.3H89V136h21.7v-30.7c4.2,3.4,9.9,5.5,15.8,5.5c21.2,0,34.7-17.4,34.7-37
		C161.2,54,147.7,36.6,126.5,36.6z M123.4,90.3c-8.9,0-15.5-6.9-15.5-16.8s6.6-16.8,15.5-16.8s15.5,6.9,15.5,16.8
		C138.9,83.4,132.2,90.3,123.4,90.3z"></path>
	<path d="M234.8,39.2c0.7-0.4,0.4-1.4-0.3-1.4h-34.6v-9.4c0-3.2,2-5.6,7-5.6h11.8V3.9h-19.9c-11.9,0-19.4,8-19.4,18.2v15.7h-10.5
		v18.9h9.3v52.8h21.7V56.7h23.5C223.9,54.2,225,44.2,234.8,39.2z"></path>
	<path d="M255.2,38.3c-6.4,0-12.5,1.8-16.8,5.5c-4.2,3.6-6.6,8.2-7.9,13.4c-0.9,3.4-1.2,7.2-1.2,11c0,14.7,0,41.8,0,41.8H251
		c0,0,0-19.2,0-31.4c0-5.3-0.2-13,2.6-17c2.4-3.4,5-4.2,8.6-4.4c0.3,0,0.6,0,1,0c5.9,0,8.4,0,11.9,0V38.3
		C267.7,38.3,261.2,38.3,255.2,38.3z"></path>
	<path d="M52.1,74c0,9.8-4,16.9-12.6,16.9h-0.9C30,90.9,26,83.7,26,74V37.8H4.2v40c0,19.5,11.3,32.9,30.7,32.9
		c6,0,12.8-2.4,17.1-6.5v5.3h21.7V37.7H52.1V74z"></path>
	<path d="M402.9,36.6c-6,0-12.8,2.4-17.1,6.5v-5.3h-21.7v71.8h21.7V73.4c0-9.8,4-16.9,12.6-16.9h0.9c8.6,0,12.6,7.2,12.6,16.9v36.2
		h21.7v-40C433.5,50,422.2,36.6,402.9,36.6z"></path>
</g>
</svg>