<svg width="6146" height="2180" viewBox="0 0 6146 2180" fill="none" xmlns="http://www.w3.org/2000/svg">
<g clip-path="url(#clip0_59_1846)">
<path d="M374.075 21.3066C435.87 21.3066 491.79 35.2302 541.835 63.0772C592.316 90.4856 631.914 128.99 660.628 178.592C689.804 227.758 704.392 282.579 704.392 343.053C704.392 435.293 672.842 512.087 609.743 573.436C546.643 634.349 468.095 664.804 374.098 664.8H216.109V957.183H13.7534V21.3066H374.075ZM364.934 477.499C404.536 477.499 436.74 464.88 461.547 439.643C486.354 414.405 498.756 382.209 498.752 343.053C498.752 303.898 486.35 271.928 461.547 247.144C437.167 221.896 404.963 209.27 364.934 209.266H216.109V477.476L364.934 477.499Z" fill="#E0D8D1"/>
<path d="M1326.96 957.183L1144.19 638.046H1014.3V957.183H811.941V21.3066H1189.89C1283.88 21.3066 1361.78 50.6741 1423.57 109.409C1485.8 167.694 1516.91 241.661 1516.91 331.31C1516.91 391.785 1501.68 445.953 1471.22 493.814C1440.76 541.237 1399.2 577.785 1346.55 603.457L1553.46 957.183H1326.96ZM1014.3 208.614V450.739H1176.18C1217.95 450.739 1251.02 439.645 1275.4 417.455C1299.77 394.835 1311.95 365.685 1311.95 330.005C1311.94 294.326 1299.76 265.178 1275.4 242.561C1251.03 219.937 1217.96 208.625 1176.18 208.625L1014.3 208.614Z" fill="#E0D8D1"/>
<path d="M1864.7 768.571H2238.73V957.183H1662.35V21.3066H2224.37V208.614H1864.7V393.305H2189.12V576.698H1864.7V768.571Z" fill="#E0D8D1"/>
<path d="M2686.39 975.456C2577.6 975.456 2489.91 946.741 2423.33 889.311C2356.73 831.442 2323.43 752.908 2323.43 653.709H2527.09C2527.09 696.779 2542.32 730.063 2572.79 753.56C2603.25 776.608 2640.67 788.132 2685.06 788.132C2725.53 788.132 2760.78 778.125 2790.8 758.11C2820.83 738.096 2835.84 711.331 2835.84 677.815C2835.84 666.071 2833.67 655.412 2829.32 645.836C2825.4 636.267 2818.44 627.784 2808.43 620.386C2799.52 613.427 2790.14 607.092 2780.36 601.427C2771.66 596.223 2758.6 591.004 2741.19 585.77C2723.79 580.536 2709.43 576.619 2698.11 574.021C2687.24 570.976 2670.69 566.843 2648.47 561.62C2570.15 542.479 2513.57 524.423 2478.76 507.453C2396.08 467.859 2349.52 406.946 2339.07 324.713C2337.31 311.299 2336.44 297.783 2336.46 284.253C2336.46 195.493 2366.7 126.749 2427.19 78.021C2488.15 28.8993 2571.07 4.33838 2675.94 4.33838C2783 4.33838 2865.9 31.1037 2924.64 84.6343C2983.82 137.711 3013.41 211.242 3013.41 305.225H2813.02C2813.02 266.936 2799.31 237.784 2771.9 217.769C2744.91 197.324 2711.19 187.101 2670.72 187.101C2634.6 187.101 2603.49 194.721 2577.38 209.963C2551.7 225.204 2538.86 247.176 2538.86 275.878C2538.76 288.101 2542.15 300.098 2548.65 310.45C2555.62 320.892 2563.67 329.377 2572.81 335.905C2581.95 342.432 2595.66 349.176 2613.93 356.135C2632.21 362.666 2647.87 367.67 2660.93 371.146C2674.42 374.625 2693.78 379.411 2719.03 385.504C2740.34 390.708 2756.66 394.842 2767.98 397.905C2779.73 400.95 2796.05 405.736 2816.94 412.264C2837.83 418.792 2854.36 424.882 2866.55 430.537C2878.73 435.741 2893.75 443.137 2911.59 452.724C2929.43 461.861 2943.58 471.216 2954.01 480.789C2964.89 489.93 2976.42 501.454 2988.59 515.36C3001.21 529.282 3010.78 543.858 3017.31 559.088C3023.84 574.318 3029.28 591.939 3033.63 611.95C3038.42 631.96 3040.81 653.28 3040.81 675.908C3040.81 725.07 3031.45 769.014 3012.74 807.738C2994.03 846.462 2968.35 878.006 2935.71 902.37C2903.51 926.302 2866.09 944.577 2823.44 957.194C2781.25 969.372 2735.56 975.459 2686.39 975.456Z" fill="#E0D8D1"/>
<path d="M3480.66 975.456C3371.86 975.456 3284.18 946.741 3217.6 889.311C3151.01 831.442 3117.72 752.908 3117.72 653.709H3321.38C3321.38 696.779 3336.61 730.063 3367.08 753.56C3397.54 776.608 3434.96 788.132 3479.35 788.132C3519.82 788.132 3555.07 778.125 3585.1 758.11C3615.13 738.096 3630.14 711.331 3630.14 677.815C3630.14 666.071 3627.96 655.412 3623.61 645.836C3619.69 636.267 3612.73 627.784 3602.72 620.386C3593.81 613.427 3584.44 607.092 3574.65 601.427C3565.95 596.223 3552.89 591.004 3535.49 585.77C3518.09 580.536 3503.72 576.642 3492.4 574.088C3481.52 571.043 3464.98 566.91 3442.79 561.687C3364.46 542.546 3307.89 524.49 3273.07 507.52C3190.4 467.926 3143.83 407.013 3133.38 324.78C3131.62 311.366 3130.75 297.85 3130.77 284.32C3130.77 195.56 3161.02 126.816 3221.51 78.0879C3282.44 28.9216 3365.34 4.33838 3470.21 4.33838C3577.26 4.33838 3660.16 31.1037 3718.91 84.6343C3778.1 137.711 3807.69 211.242 3807.69 305.225H3607.29C3607.29 266.936 3593.58 237.784 3566.16 217.769C3539.19 197.324 3505.46 187.101 3464.99 187.101C3428.87 187.101 3397.76 194.721 3371.64 209.963C3345.99 225.204 3333.16 247.176 3333.16 275.878C3333.05 288.1 3336.45 300.097 3342.95 310.45C3349.92 320.892 3357.97 329.377 3367.11 335.905C3376.24 342.432 3389.93 349.166 3408.19 356.107C3426.46 362.638 3442.13 367.642 3455.18 371.118C3468.67 374.597 3488.03 379.383 3513.28 385.476C3534.6 390.681 3550.92 394.814 3562.23 397.877C3573.99 400.922 3590.3 405.708 3611.19 412.236C3632.07 418.764 3648.62 424.855 3660.83 430.509C3673.01 435.713 3688.03 443.109 3705.87 452.696C3723.72 461.833 3737.86 471.188 3748.3 480.761C3759.18 489.902 3770.71 501.426 3782.88 515.332C3795.5 529.254 3805.07 543.83 3811.6 559.06C3818.13 574.29 3823.57 591.911 3827.92 611.922C3832.71 631.933 3835.1 653.252 3835.1 675.88C3835.1 725.042 3825.74 768.986 3807.03 807.71C3788.33 846.434 3762.64 877.984 3729.99 902.359C3697.78 926.291 3660.36 944.566 3617.71 957.183C3575.52 969.369 3529.83 975.459 3480.66 975.456Z" fill="#E0D8D1"/>
<path d="M697.108 1271.87H819.805L464.709 2165.05H361.326L0 1271.87H123.974L413.031 1996.88L697.108 1271.87Z" fill="#E0D8D1"/>
<path d="M1048.34 2057.92H1456.39V2165.05H936.83V1271.87H1442.68V1378.37H1048.34V1654.3H1409.05V1757.7H1048.34V2057.92Z" fill="#E0D8D1"/>
<path d="M2212.56 1271.87H2322.2V2165.05H2228.13L1719.79 1468.07V2165.05H1610.12V1271.87H1711.06L2212.56 1960.75V1271.87Z" fill="#E0D8D1"/>
<path d="M3093.94 1271.87V1377.13H2822.34V2165.03H2710.19V1377.13H2438.58V1271.87H3093.94Z" fill="#E0D8D1"/>
<path d="M3551.71 2180C3450.36 2180 3366.47 2147.4 3300.02 2082.21C3233.58 2017.02 3200.35 1933.76 3200.35 1832.44V1271.87H3313.73V1824.34C3313.73 1897.43 3335.74 1956.81 3379.76 2002.48C3424.2 2047.75 3481.52 2070.38 3551.71 2070.37C3621.06 2070.37 3677.75 2047.74 3721.78 2002.48C3766.22 1956.81 3788.43 1897.43 3788.43 1824.34V1271.87H3901.82V1832.44C3901.82 1899.3 3886.66 1959.3 3856.34 2012.45C3826.02 2065.6 3784.08 2106.91 3730.5 2136.4C3677.34 2165.46 3617.74 2180 3551.71 2180Z" fill="#E0D8D1"/>
<path d="M4622.47 2165.05L4417.52 1815.62H4213.8V2165.05H4102.29V1271.87H4440.57C4524.46 1271.87 4593.82 1297.61 4648.64 1349.1C4703.88 1400.61 4731.49 1466.01 4731.49 1545.31C4731.49 1607.59 4713.64 1661.78 4677.92 1707.87C4642.2 1753.54 4594.44 1785.1 4534.63 1802.55L4748.31 2165.05H4622.47ZM4213.8 1378.38V1709.74H4434.94C4489.35 1709.74 4533.37 1694.38 4567.01 1663.65C4600.65 1632.5 4617.47 1592.64 4617.47 1544.06C4617.47 1495.89 4600.44 1456.23 4566.38 1425.09C4532.74 1393.95 4488.93 1378.38 4434.94 1378.38H4213.8Z" fill="#E0D8D1"/>
<path d="M5002.99 2057.92H5411.03V2165.05H4891.47V1271.87H5397.32V1378.37H5002.99V1654.3H5363.69V1757.7H5002.99V2057.92Z" fill="#E0D8D1"/>
<path d="M5830.78 2176.26C5731.95 2176.26 5652.22 2150.31 5591.58 2098.4C5531.34 2046.49 5501.23 1976.94 5501.23 1889.75H5615.21C5615.21 1944.14 5635.15 1987.32 5675.05 2019.3C5714.93 2050.86 5766.42 2066.64 5829.54 2066.64C5886.87 2066.64 5934.63 2052.73 5972.81 2024.91C6011.02 1996.65 6030.13 1959.28 6030.14 1912.79C6030.21 1902.05 6028.75 1891.34 6025.79 1881.01C6022.84 1870.63 6019.55 1861.7 6015.81 1854.24C6012.08 1846.35 6006.05 1838.88 5997.74 1831.82C5989.82 1824.76 5982.55 1818.74 5975.94 1813.76C5969.69 1808.78 5960.37 1803.79 5947.88 1798.81C5935.44 1793.41 5925.24 1789.26 5917.38 1786.35C5909.9 1783.03 5898.26 1779.3 5882.46 1775.14C5866.66 1770.98 5854.84 1767.87 5846.99 1765.8C5839.07 1763.72 5826.19 1760.61 5808.34 1756.46C5732.33 1738.18 5677.93 1721.36 5645.16 1706C5573.28 1671.54 5531.95 1619.84 5521.16 1550.91C5519.04 1537.1 5518 1523.15 5518.05 1509.18C5518.05 1432.36 5545.45 1371.74 5600.26 1327.3C5655.07 1282.87 5729 1260.65 5822.06 1260.66C5914.25 1260.66 5986.92 1284.53 6040.07 1332.29C6093.67 1379.62 6120.46 1443.98 6120.44 1525.37H6009.57C6009.57 1476.79 5991.72 1438.38 5956.02 1410.15C5920.72 1381.89 5875.23 1367.77 5819.55 1367.77C5764.34 1367.77 5718.87 1380.22 5683.14 1405.13C5647.81 1429.63 5630.17 1462.64 5630.21 1504.16C5630.21 1517.87 5632.27 1530.53 5636.4 1542.15C5640.62 1552.72 5646.07 1562.76 5652.63 1572.05C5658.82 1580.36 5667.95 1588.45 5680.01 1596.34C5692.06 1603.82 5703.06 1610.05 5713.03 1615.03C5723.01 1619.6 5736.71 1624.58 5754.13 1629.98C5772.04 1635.38 5786.78 1639.53 5798.36 1642.44C5810.02 1645.35 5826.19 1649.29 5846.99 1654.27C5922.95 1672.96 5977.35 1689.98 6010.18 1705.34C6084.13 1739.39 6127.74 1790.67 6141.02 1859.19C6144.41 1876.42 6146.07 1893.95 6145.98 1911.51C6145.98 1966.32 6131.87 2014.08 6103.65 2054.77C6075.82 2095.05 6038.23 2125.36 5990.88 2145.71C5943.99 2166.08 5890.62 2176.26 5830.78 2176.26Z" fill="#E0D8D1"/>
<path d="M5943.61 21.1895H6146V975.261H5973.53L5540.82 379.132V975.261H5338.43V21.1895H5524.84L5943.63 603.346L5943.61 21.1895Z" fill="#E0D8D1"/>
<path fill-rule="evenodd" clip-rule="evenodd" d="M4549.94 332.118L4437 187.625L4300.44 324.133C4299.58 324.995 4298.89 326.018 4298.43 327.144C4297.96 328.27 4297.72 329.477 4297.72 330.696V682.281C4297.72 683.5 4297.96 684.707 4298.43 685.834C4298.89 686.96 4299.58 687.983 4300.44 688.844L4584.28 972.629C4585.14 973.492 4586.16 974.176 4587.29 974.643C4588.42 975.11 4589.62 975.35 4590.84 975.35H4942.49C4943.71 975.35 4944.92 975.11 4946.04 974.643C4947.17 974.176 4948.19 973.492 4949.06 972.629L5232.89 688.844C5234.64 687.103 5235.61 684.743 5235.62 682.281V330.696C5235.61 328.235 5234.64 325.874 5232.89 324.133L5094.76 186.024L4978.15 335.235C5015.11 382.872 5035.13 441.471 5035.03 501.76C5035.03 652.081 4913.16 773.935 4762.81 773.935C4612.46 773.935 4490.59 652.081 4490.59 501.76C4490.5 440.111 4511.43 380.272 4549.94 332.118V332.118Z" fill="#E0D8D1"/>
<path fill-rule="evenodd" clip-rule="evenodd" d="M4868.84 21.1895V524.712H4664.71V21.1895H4868.84Z" fill="#E0D8D1"/>
</g>
<defs>
<clipPath id="clip0_59_1846">
<rect width="6146" height="2180" fill="white"/>
</clipPath>
</defs>
</svg>
